<svg preserveAspectRatio="xMidYMid meet" version="1.0" viewBox="-0.4 -2.0 500.5 357.0" xmlns="http://www.w3.org/2000/svg" xmlns:xlink="http://www.w3.org/1999/xlink" zoomAndPan="magnify" style="fill: rgb(0, 0, 0);" original_string_length="33460"><g id="__id557_svf7zmxsic"><path d="M163.262,349.885L163.262,349.885c-2.582,0-4.5-2.393-3.936-4.913l10.62-47.538 c0.412-1.843,2.048-3.154,3.936-3.154c2.582,0,4.5,2.393,3.937,4.913l-10.621,47.538 C166.786,348.574,165.151,349.885,163.262,349.885" style="fill: rgb(252, 252, 240);"/></g><g id="__id558_svf7zmxsic"><path d="M287.827,349.885L287.827,349.885c2.582,0,4.499-2.393,3.936-4.913l-10.62-47.538 c-0.412-1.843-2.048-3.154-3.937-3.154c-2.582,0-4.5,2.393-3.936,4.913l10.62,47.538 C284.301,348.574,285.938,349.885,287.827,349.885" style="fill: rgb(252, 252, 240);"/></g><g id="__id559_svf7zmxsic"><path d="M361.448,349.885L361.448,349.885c2.582,0,4.499-2.393,3.936-4.913l-10.62-47.538 c-0.412-1.843-2.048-3.154-3.937-3.154c-2.582,0-4.5,2.393-3.936,4.913l10.62,47.538 C357.923,348.574,359.559,349.885,361.448,349.885" style="fill: rgb(252, 252, 240);"/></g><g id="__id560_svf7zmxsic"><path d="M160.781,290.767V166.683c0-10.82,8.771-19.591,19.59-19.591H294.86c10.82,0,19.591,8.771,19.591,19.591 v124.083c0,10.82-8.771,19.591-19.591,19.591H180.371C169.552,310.357,160.781,301.586,160.781,290.767" style="fill: rgb(53, 54, 61);"/></g><g id="__id561_svf7zmxsic"><path d="M160.781,290.767v-64.338c0-10.82,8.771-19.591,19.59-19.591h177.783c10.82,0,19.591,8.771,19.591,19.591 v64.338c0,10.82-8.771,19.591-19.591,19.591H180.371C169.552,310.357,160.781,301.586,160.781,290.767" style="fill: rgb(53, 54, 61);"/></g><g id="__id562_svf7zmxsic"><path d="M374.838,277.689c-0.163,0-0.296-0.132-0.296-0.296c0-9.223-7.503-16.725-16.725-16.725h-95.501 c-0.163,0-0.296-0.132-0.296-0.296c0-0.163,0.132-0.296,0.296-0.296h95.501c9.548,0,17.317,7.769,17.317,17.317 C375.133,277.557,375.001,277.689,374.838,277.689z" style="fill: rgb(252, 252, 240);"/></g><g id="__id563_svf7zmxsic"><path d="M242.164,261.49c0,0-8.293-10.895-14.421-38.536c-5.205-23.478-3.779-38.133-3.779-38.133 s21.771-5.013,46.568-4.395c26.875,0.67,49.569,7.094,49.569,7.094s6.439,12.819,10.844,36.541 c4.437,23.893,5.336,41.475,5.336,41.475s-23.476,2.939-49.83,2.043C261.31,266.726,242.164,261.49,242.164,261.49" style="fill: rgb(16, 177, 81);"/></g><g id="__id564_svf7zmxsic"><path d="M242.725,206.838H199.02v-40.155c0-10.82-8.771-19.591-19.59-19.591h-12.874 c-10.82,0-19.591,8.771-19.591,19.591v59.745v64.338c0,10.82,8.771,19.591,19.591,19.591h12.874h63.295 c10.82,0,19.59-8.771,19.59-19.591v-64.338C262.315,215.609,253.544,206.838,242.725,206.838" style="fill: rgb(53, 54, 61);"/></g><g id="__id565_svf7zmxsic"><path d="M222.081,207.134h-72.064c-0.163,0-0.296-0.132-0.296-0.296s0.132-0.296,0.296-0.296h72.064 c0.163,0,0.296,0.132,0.296,0.296S222.244,207.134,222.081,207.134z" style="fill: rgb(252, 252, 240);"/></g><g id="__id566_svf7zmxsic"><path d="M199.021,207.134c-0.163,0-0.296-0.132-0.296-0.296v-40.155c0-8.5-5.448-15.905-13.557-18.427 c-0.156-0.049-0.243-0.214-0.195-0.37c0.049-0.155,0.212-0.244,0.37-0.195c8.358,2.6,13.973,10.232,13.973,18.992v40.155 C199.317,207.001,199.184,207.134,199.021,207.134z" style="fill: rgb(252, 252, 240);"/></g><g id="__id567_svf7zmxsic"><path d="M262.315,308.301c-0.163,0-0.296-0.132-0.296-0.296v-39.742c0-0.163,0.132-0.296,0.296-0.296 s0.296,0.132,0.296,0.296v39.742C262.611,308.169,262.479,308.301,262.315,308.301z" style="fill: rgb(252, 252, 240);"/></g><g id="__id568_svf7zmxsic"><path d="M295.254,223.527c-2.825,0.387-4.909-2.546-3.641-5.099c0.754-1.517,2.332-3.937,4.189-6.6 c6.318-9.066,16.151-15.069,27.099-16.57l37.292-5.11c1.976-0.271,3.798,1.112,4.069,3.088c0.27,1.976-1.112,3.798-3.088,4.069 l-16.572,2.27l-3.887,12.579c-1.012,3.277-3.832,5.669-7.229,6.134L295.254,223.527z" style="fill: rgb(252, 252, 240);"/></g><g id="__id569_svf7zmxsic"><path d="M293.601,215.38c-0.146,0-0.272-0.107-0.292-0.256c-0.023-0.162,0.091-0.311,0.253-0.333l30.829-4.224 c2.621-0.359,4.819-2.224,5.601-4.752l3.761-12.17c0.048-0.157,0.213-0.246,0.37-0.195c0.156,0.048,0.244,0.214,0.195,0.37 l-3.761,12.17c-0.849,2.747-3.238,4.773-6.086,5.163l-30.828,4.224C293.628,215.379,293.614,215.38,293.601,215.38z" style="fill: rgb(53, 54, 61);"/></g><g id="__id570_svf7zmxsic"><path d="M362.077,72.989c0,0-1.503,3.009-2.36,4.226c-1.003,1.422-1.22,2.269,0.143,2.785 c2.103,0.795,5.601,1.648,5.601,1.648l0.05-5.42L362.077,72.989z" style="fill: rgb(232, 135, 114);"/></g><g id="__id571_svf7zmxsic"><path d="M362.109,73.918c-2.356-5.042-4.87-9.438-2.477-15.967c4.434-12.096,22.176-15.15,29.468-7.24 c4.544,4.929,8.634,16.314,4.917,25.016c-2.886,6.757-13.352,14.066-21.94,14.716c-5.457,0.413-9.921-13.795-9.921-13.795 S362.366,74.374,362.109,73.918" style="fill: rgb(232, 135, 114);"/></g><g id="__id572_svf7zmxsic"><path d="M364.543,68.724c-0.751,0.369-0.592,1.559-0.342,2.248c0.183,0.505,0.822,1.682,1.632,1.279 c0.788-0.392,0.849-1.226,0.33-2.495C365.635,68.466,364.84,68.579,364.543,68.724" style="fill: rgb(61, 37, 28);"/></g><g id="__id573_svf7zmxsic"><path d="M365.5,72.63L365.5,72.63c-0.8,0-1.367-0.979-1.576-1.557c-0.271-0.749-0.473-2.142,0.489-2.615 c0.088-0.043,0.272-0.115,0.516-0.115c0.364,0,1.044,0.169,1.508,1.3c0.222,0.542,0.898,2.192-0.471,2.872 C365.814,72.592,365.657,72.63,365.5,72.63z M364.929,68.935c-0.129,0-0.221,0.038-0.255,0.055 c-0.545,0.267-0.415,1.272-0.195,1.882c0.176,0.484,0.608,1.166,1.021,1.166l0,0c0.066,0,0.132-0.017,0.202-0.051 c0.408-0.203,0.798-0.627,0.187-2.119C365.639,69.258,365.307,68.935,364.929,68.935z" style="fill: rgb(61, 37, 28);"/></g><g id="__id574_svf7zmxsic"><path d="M363.128,70.755c1.809-0.095,4.222-0.778,5.497-2.431c0,0-1.453-1.713-4.208-0.564 C362.031,68.755,363.128,70.755,363.128,70.755" style="fill: rgb(232, 135, 114);"/></g><g id="__id575_svf7zmxsic"><path d="M363.128,71.051c-0.146,0-0.273-0.109-0.293-0.258c-0.021-0.162,0.094-0.311,0.255-0.332 c1.894-0.245,4.324-1.032,5.462-2.509c0.1-0.129,0.285-0.152,0.415-0.053c0.129,0.099,0.153,0.285,0.053,0.415 c-1.571,2.037-4.878,2.608-5.854,2.734C363.153,71.05,363.14,71.051,363.128,71.051z" style="fill: rgb(61, 37, 28);"/></g><g id="__id576_svf7zmxsic"><path d="M368.486,65.689c-2.645,0.624-4.819,1.306-6.903,2.792c-0.13,0.06-0.922-1.267-0.568-1.58 c2.245-1.986,4.727-2.282,7.47-1.628C368.702,65.325,368.703,65.638,368.486,65.689" style="fill: rgb(61, 37, 28);"/></g><g id="__id577_svf7zmxsic"><path d="M367.735,84.659c-0.118,0-0.229-0.071-0.275-0.188c-0.06-0.152,0.014-0.323,0.167-0.383 c1.302-0.512,2.38-1.53,2.883-2.72c0.064-0.151,0.239-0.22,0.388-0.158c0.151,0.064,0.221,0.237,0.158,0.388 c-0.564,1.334-1.764,2.471-3.212,3.04C367.808,84.653,367.771,84.659,367.735,84.659z" style="fill: rgb(61, 37, 28);"/></g><g id="__id578_svf7zmxsic"><path d="M378.901,81.031c2.239,6.088,5.647,13.132,9.476,18.375c5.997-2.041,12.546-5.693,17.712-9.307 c-6.153-3.938-11.155-10.085-13.176-17.133C389.058,75.998,384.242,77.989,378.901,81.031" style="fill: rgb(232, 135, 114);"/></g><g id="__id579_svf7zmxsic"><path d="M447.304,197.074c-12.749,23.301-39.381,49.608-33.351,73.175c19.774-1.79,39.669-1.731,59.435,0.176 C464.455,245.35,455.521,220.276,447.304,197.074" style="fill: rgb(16, 177, 81);"/></g><g id="__id580_svf7zmxsic"><path d="M498.203,339.774c0.265-0.087-1.649-2.822-1.622-3.857c0.323-12.543-0.596-52.535-10.847-70.998 c-2.399-4.321-5.404-8.322-7.278-12.906c-8.174-20.001,3.88-50.719-3.403-85.284c-2.813-13.35-37.456-15.482-36.7-4.784 c1.025,14.478,9.735,60.423,15.434,83.982c6.679,27.612,21.646,60.032,24.495,88.918 C478.281,334.845,488.132,343.074,498.203,339.774" style="fill: rgb(232, 135, 114);"/></g><g id="__id581_svf7zmxsic"><path d="M424.587,161.664c-6.143,13.151-20.866,57.535-27.339,80.894c-7.586,27.378-10.267,62.985-21.819,89.613 c-1.931,4.451-16.346,5.717-22.031,11.31c-1.552,1.527-0.441,4.175,1.736,4.175c7.501-0.002,23.829-0.03,32.916-0.046 c3.6-0.007,6.4-3.14,5.999-6.717c-0.336-3.004-0.668-5.124-0.141-6.015c6.38-10.804,22.008-39.073,22.025-60.192 c0.004-4.942-0.677-9.899-0.086-14.816c2.579-21.452,28.046-42.437,38.484-76.184C458.365,170.652,429.126,151.948,424.587,161.664" style="fill: rgb(232, 135, 114);"/></g><g id="__id582_svf7zmxsic"><path d="M395.637,347.628l-1.23-8.216c-0.067-0.447-0.486-0.749-0.931-0.67c-2.927,0.519-13.054,1.777-17.63-4.638 c-0.637-0.893-1.846-1.163-2.779-0.586c-5.554,3.436-10.424,2.168-16.948,5.154c-3.012,1.379-4.026,6.173-4.365,9.027 L395.637,347.628z" style="fill: rgb(53, 54, 61);"/></g><g id="__id583_svf7zmxsic"><path d="M351.754,347.699c-0.139,1.165,0.78,2.185,1.954,2.185h39.985c1.202,0,2.122-1.068,1.945-2.257l-0.125-0.832 h-43.634C351.829,347.111,351.787,347.417,351.754,347.699" style="fill: rgb(252, 252, 240);"/></g><g id="__id584_svf7zmxsic"><path d="M364.543,340.949c-0.102,0-0.202-0.054-0.256-0.149l-2.234-3.906c-0.081-0.142-0.032-0.322,0.11-0.403 c0.139-0.081,0.322-0.033,0.403,0.11l2.234,3.906c0.081,0.142,0.032,0.322-0.11,0.403 C364.644,340.936,364.594,340.949,364.543,340.949z" style="fill: rgb(252, 252, 240);"/></g><g id="__id585_svf7zmxsic"><path d="M370.323,339.811c-0.102,0-0.202-0.054-0.257-0.149l-2.234-3.906c-0.081-0.142-0.032-0.322,0.11-0.403 c0.14-0.081,0.322-0.032,0.403,0.11l2.234,3.906c0.081,0.142,0.032,0.322-0.11,0.403 C370.423,339.798,370.373,339.811,370.323,339.811z" style="fill: rgb(252, 252, 240);"/></g><g id="__id586_svf7zmxsic"><path d="M499.978,347.628l-1.23-8.216c-0.066-0.447-0.486-0.749-0.931-0.67c-2.927,0.519-13.054,1.777-17.63-4.638 c-0.637-0.893-1.846-1.163-2.779-0.586c-5.554,3.436-10.424,2.168-16.948,5.154c-3.012,1.379-4.026,6.173-4.365,9.027 L499.978,347.628z" style="fill: rgb(53, 54, 61);"/></g><g id="__id587_svf7zmxsic"><path d="M456.095,347.699c-0.139,1.165,0.78,2.185,1.954,2.185h39.985c1.202,0,2.122-1.068,1.945-2.257l-0.125-0.832 H456.22C456.171,347.111,456.128,347.417,456.095,347.699" style="fill: rgb(252, 252, 240);"/></g><g id="__id588_svf7zmxsic"><path d="M468.885,340.949c-0.102,0-0.202-0.054-0.256-0.149l-2.234-3.906c-0.081-0.142-0.032-0.322,0.11-0.403 c0.14-0.081,0.322-0.033,0.403,0.11l2.234,3.906c0.081,0.142,0.032,0.322-0.11,0.403 C468.985,340.936,468.935,340.949,468.885,340.949z" style="fill: rgb(252, 252, 240);"/></g><g id="__id589_svf7zmxsic"><path d="M474.664,339.811c-0.102,0-0.202-0.054-0.256-0.149l-2.234-3.906c-0.081-0.142-0.032-0.322,0.11-0.403 c0.14-0.081,0.322-0.032,0.403,0.11l2.234,3.906c0.081,0.142,0.032,0.322-0.11,0.403 C474.764,339.798,474.714,339.811,474.664,339.811z" style="fill: rgb(252, 252, 240);"/></g><g id="__id590_svf7zmxsic"><path d="M438.658,157.024c3.382,53.915,12.636,95.051,29.627,146.033c2.933-1.703,28.326-5.128,29.943-6.224 c-5.974-45.6-17.659-40.945-19.786-57.183c-1.885-14.381,8.01-48.94,1.369-68.427c-3.854-11.311-24.101-29.8-24.101-29.8 S444.633,152.405,438.658,157.024" style="fill: rgb(252, 252, 240);"/></g><g id="__id591_svf7zmxsic"><path d="M426.434,158.184c-23.016,48.873-33.96,86.061-43.639,138.919c3.392-0.079,28.296,6.131,30.242,5.949 c12.798-32.754,2.484-38.044,8.444-53.298c4.349-11.13,10.936-21.195,17.56-31.14c6.625-9.946,13.106-20.287,15.964-31.89 c2.859-11.604,1.566-24.836-6.111-33.994C441.395,154.873,433.896,157.016,426.434,158.184" style="fill: rgb(252, 252, 240);"/></g><g id="__id592_svf7zmxsic"><path d="M445.744,208.365c-0.049,0-0.098-0.012-0.144-0.038c-0.143-0.079-0.194-0.259-0.114-0.402 c2.221-3.988,4.429-5.83,6.565-7.612c2.169-1.809,4.411-3.679,6.732-7.849c3.073-5.519,2.074-13.061,2.063-13.137 c-0.023-0.162,0.091-0.311,0.252-0.333c0.16-0.023,0.311,0.09,0.333,0.252c0.044,0.316,1.039,7.811-2.133,13.505 c-2.375,4.266-4.66,6.172-6.87,8.016c-2.191,1.828-4.26,3.554-6.428,7.446C445.949,208.31,445.848,208.365,445.744,208.365z" style="fill: rgb(16, 177, 81);"/></g><g id="__id593_svf7zmxsic"><path d="M381.466,102.186c2.605-19.047,17.991-32.359,47.893-6.329c15.535,13.523,30.48,48.265,48.714,66.5 c-11.122,16.605-42.641,24.535-64.747,21.552c3.347-21.728-4.564-28.333-15.259-38.044 C388.809,137.46,377.97,127.742,381.466,102.186" style="fill: rgb(53, 54, 61);"/></g><g id="__id594_svf7zmxsic"><path d="M401.664,147.626c0,0,9.366,13.414,9.718,18.77c0.4,6.095-30.276,93.84-30.587,101.079 c-0.3,6.971,28.93,5.638,28.93,5.638s38.23-99.35,44.989-111.036c2.205-3.814,13.903-10.828,13.903-10.828s-1.631-2.405-2.406-3.292 c-1.872,0.857-10.409,6.943-14.425,7.715c-12.812,2.462-36.094-4.363-49.793-15.62C401.529,142.695,401.664,147.626,401.664,147.626" style="fill: rgb(16, 177, 81);"/></g><g id="__id595_svf7zmxsic"><path d="M386.108,103.643l2.024,53.255l-28.567,30.339l7.175,7.905c0,0,36.356-22.716,38.848-35.168 c2.845-14.22,0.863-49.479,0.863-49.479L386.108,103.643z" style="fill: rgb(232, 135, 114);"/></g><g id="__id596_svf7zmxsic"><path d="M376.396,167.485c-1.876-0.412-11.777,14.265-18.549,18.536c-6.663,4.202-10.671,8.012-12.122,12.867 c-0.671,2.247,0.287,3.199,1.195,3.288c1.17,0.114,1.925-0.534,1.925-0.534s-0.027,0.771,1.309,1.274 c1.293,0.486,1.942,0.035,1.999,0.111c1.209,1.609,3.168,0.747,3.375,0.94c1.158,1.087,2.751,0.778,4.435-0.451 c1.649-1.203,4.474-5.41,7.728-7.783c3.051-2.227,18.628-10.765,20.265-13.407C389.548,179.758,377.968,167.831,376.396,167.485" style="fill: rgb(16, 177, 81);"/></g><g id="__id597_svf7zmxsic"><path d="M352.241,202.916c-0.039,0-0.078-0.008-0.116-0.024c-0.151-0.064-0.221-0.237-0.157-0.388l1.107-2.604 c0.064-0.151,0.239-0.221,0.388-0.157c0.151,0.064,0.221,0.237,0.157,0.388l-1.107,2.604 C352.465,202.848,352.356,202.916,352.241,202.916z" style="fill: rgb(61, 37, 28);"/></g><g id="__id598_svf7zmxsic"><path d="M349.156,201.398c-0.039,0-0.078-0.008-0.116-0.024c-0.151-0.064-0.221-0.237-0.157-0.388l1.107-2.604 c0.064-0.151,0.239-0.221,0.388-0.157c0.151,0.064,0.221,0.237,0.157,0.388l-1.107,2.604 C349.38,201.33,349.271,201.398,349.156,201.398z" style="fill: rgb(61, 37, 28);"/></g><g id="__id599_svf7zmxsic"><path d="M355.643,203.813c-0.058,0-0.116-0.017-0.166-0.051c-0.135-0.092-0.17-0.276-0.078-0.411l1.584-2.323 c0.092-0.136,0.277-0.169,0.411-0.078c0.135,0.092,0.17,0.276,0.078,0.411l-1.584,2.323 C355.83,203.768,355.737,203.813,355.643,203.813z" style="fill: rgb(61, 37, 28);"/></g><g id="__id600_svf7zmxsic"><path d="M397.892,90.451c-21.059,0-17.708,33.941-18.991,53.162c-0.275,4.107,29.783,4.587,33.422,0 C411.846,138.139,412.283,90.451,397.892,90.451" style="fill: rgb(53, 54, 61);"/></g><g id="__id601_svf7zmxsic"><path d="M413.037,143.909c-0.159,0-0.29-0.126-0.296-0.286c-0.031-0.894-0.198-2.473-0.411-4.471 c-0.764-7.196-2.044-19.241,0.449-23.619c0.081-0.142,0.261-0.191,0.403-0.111c0.142,0.081,0.192,0.262,0.111,0.403 c-2.4,4.213-1.132,16.138-0.375,23.264c0.214,2.01,0.382,3.598,0.414,4.514c0.005,0.163-0.122,0.3-0.286,0.306 C413.044,143.909,413.04,143.909,413.037,143.909z" style="fill: rgb(61, 37, 28);"/></g><g id="__id602_svf7zmxsic"><path d="M356.594,57.319c-0.512,5.345,13.991,5.791,16.619,6.193c8.525,1.304,8.946,7.044,14.072,11.204 c3.844,3.12,7.09,2.776,9.265-0.862c2.877-4.813,5.144-18.154-3.688-26.987c-4.009-4.008-10.272-5.075-15.866-4.161 C371.402,43.62,357.368,49.245,356.594,57.319" style="fill: rgb(61, 37, 28);"/></g><g id="__id603_svf7zmxsic"><path d="M376.94,67.522c0.176-2.807,2.827-7.533,6.794-6.289c1.367,0.429,2.404,1.642,2.834,3.009 c0.648,2.059-0.456,10.673-5.899,10.47C378.761,74.642,376.734,70.802,376.94,67.522" style="fill: rgb(232, 135, 114);"/></g><g id="__id604_svf7zmxsic"><path d="M378.844,69.931c-0.139,0-0.263-0.099-0.29-0.241c-0.485-2.597,1.411-5.743,3.828-6.352 c0.159-0.043,0.319,0.056,0.359,0.214s-0.056,0.319-0.214,0.359c-2.105,0.531-3.816,3.393-3.391,5.67 c0.03,0.161-0.076,0.315-0.236,0.345C378.88,69.929,378.862,69.931,378.844,69.931z" style="fill: rgb(61, 37, 28);"/></g><g id="__id605_svf7zmxsic"><path d="M359.564,185.814c-2.927-0.936-16.228,4.429-17.577,6.147c-0.689,0.877,0.979,2.278,3.513,2.278 c1.804,0,10.052-0.728,11.543-1.895C358.742,191.014,361.382,186.395,359.564,185.814" style="fill: rgb(16, 177, 81);"/></g><g id="__id606_svf7zmxsic"><path d="M390.91,74.215c0.388,3.177,1.412,6.274,2.994,9.056c0.782,1.375,1.734,2.709,3.074,3.551 c2.361,1.484,5.68,1.067,7.753-0.798s2.858-4.962,2.145-7.658c-0.712-2.696-2.804-4.936-5.357-6.058 c-2.554-1.122-5.512-1.174-8.187-0.385c-0.745,0.22-1.49,0.513-2.067,1.032S390.3,74.257,390.91,74.215" style="fill: rgb(61, 37, 28);"/></g><g id="__id607_svf7zmxsic"><path d="M462.04,151.257c0,0,0.6,20.351,2.841,21.76c1.18,0.742,4.37-0.854,4.37-0.854s4.188,7.541,6.281,11.311 c1.804-0.828,3.61-1.654,5.415-2.482c-0.593-0.412-9.124-17.26-9.124-17.26l12.048,16.041l3.964-2.467l-7.976-11.499 c0,0,3.401-1.956,2.988-4.114c-0.699-3.645-6.387-9.018-17.128-12.63C465.278,149.455,462.04,151.257,462.04,151.257" style="fill: rgb(16, 177, 81);"/></g><g id="__id608_svf7zmxsic"><path d="M135.631,84.667l-4.992,53.124l3.901,58.896l-13.488,2.547c0,0-13.4-38.367-13.462-55.59 c-0.033-8.897,4.151-57.983,4.151-57.983L135.631,84.667z" style="fill: rgb(232, 135, 114);"/></g><g id="__id609_svf7zmxsic"><path d="M105.603,347.005c-0.289-0.007,3.64-12.757,3.221-13.741c-5.078-11.922-17.679-53.617-14.854-75.315 c0.661-5.078,2.025-10.083,2.081-15.21c0.248-22.371-22.188-40.636-28.333-76.653c-2.373-13.911,31.347-28.558,34.686-17.99 c4.519,14.302,19.473,63.795,20.874,88.831c1.749,31.259-2.398,67.732,5.845,96.58C129.124,333.507,118.97,347.331,105.603,347.005" style="fill: rgb(232, 135, 114);"/></g><g id="__id610_svf7zmxsic"><path d="M105.672,347.417l1.396-9.389c0.076-0.511,0.555-0.857,1.063-0.767c3.345,0.59,14.919,2.016,20.141-5.32 c0.728-1.021,2.109-1.33,3.175-0.672c6.351,3.921,10.802,4.049,18.554,6.72c4.565,1.573,5.426,6.2,5.817,9.461L105.672,347.417z" style="fill: rgb(53, 54, 61);"/></g><g id="__id611_svf7zmxsic"><path d="M155.818,347.449c0.159,1.331-0.89,2.498-2.23,2.499l-45.692,0.045c-1.373,0.001-2.426-1.218-2.224-2.577 l0.142-0.951l49.862-0.049C155.73,346.777,155.779,347.126,155.818,347.449" style="fill: rgb(252, 252, 240);"/></g><g id="__id612_svf7zmxsic"><path d="M141.522,340.732c-0.036,0-0.073-0.006-0.108-0.02c-0.152-0.06-0.227-0.232-0.168-0.384l1.754-4.472 c0.06-0.152,0.232-0.226,0.384-0.168c0.152,0.06,0.227,0.232,0.168,0.384l-1.754,4.472 C141.751,340.661,141.64,340.732,141.522,340.732z" style="fill: rgb(252, 252, 240);"/></g><g id="__id613_svf7zmxsic"><path d="M135.189,338.77c-0.036,0-0.073-0.006-0.108-0.02c-0.152-0.06-0.227-0.232-0.168-0.384l1.754-4.472 c0.06-0.152,0.232-0.227,0.384-0.168c0.152,0.06,0.227,0.232,0.168,0.384l-1.754,4.472 C135.418,338.699,135.307,338.77,135.189,338.77z" style="fill: rgb(252, 252, 240);"/></g><g id="__id614_svf7zmxsic"><path d="M61.094,154.794c1.286,30.332,33.409,73.008,29.909,86.374c-4.148,15.835-2.278,47.675,4.917,78.754 c1.794,0.151,36.486-8.584,38.043-8.188c0.631-1.226-9.033-47.955-8.14-71.797c1.001-26.711-22.491-99.581-22.214-101.912 C100.592,138.857,63.578,154.108,61.094,154.794" style="fill: rgb(16, 177, 81);"/></g><g id="__id615_svf7zmxsic"><path d="M0.006,332.223c-0.259-0.128,8.67-10.041,8.704-11.11c0.41-12.952,6.521-56.079,18.213-74.575 c2.736-4.328,6.08-8.295,8.288-12.922c9.637-20.192-3.031-46.201,6.548-81.46c3.699-13.618,40.452-12.719,39.035-1.727 c-1.918,14.876-9.176,66.067-18.439,89.368c-11.565,29.094-30.672,60.437-35.332,90.075 C27.023,329.873,11.994,338.142,0.006,332.223" style="fill: rgb(232, 135, 114);"/></g><g id="__id616_svf7zmxsic"><path d="M0.361,332.292l5.155-7.971c0.28-0.434,0.86-0.551,1.285-0.259c2.801,1.921,12.749,8.006,20.538,3.487 c1.084-0.629,2.47-0.339,3.169,0.702c4.16,6.196,8.16,8.154,14.112,13.792c3.506,3.321,2.377,7.889,1.384,11.019L0.361,332.292z" style="fill: rgb(53, 54, 61);"/></g><g id="__id617_svf7zmxsic"><path d="M46.004,353.062c-0.405,1.278-1.843,1.907-3.064,1.353L1.32,335.558c-1.251-0.567-1.705-2.113-0.959-3.266 l0.522-0.807L46.3,352.063C46.202,352.414,46.101,352.752,46.004,353.062" style="fill: rgb(252, 252, 240);"/></g><g id="__id618_svf7zmxsic"><path d="M35.89,341.06c-0.077,0-0.154-0.03-0.212-0.09c-0.114-0.117-0.111-0.304,0.006-0.418l3.446-3.346 c0.118-0.114,0.304-0.111,0.418,0.006s0.111,0.304-0.006,0.418l-3.446,3.346C36.038,341.032,35.964,341.06,35.89,341.06z" style="fill: rgb(252, 252, 240);"/></g><g id="__id619_svf7zmxsic"><path d="M30.934,336.655c-0.077,0-0.154-0.03-0.212-0.09c-0.114-0.117-0.111-0.304,0.006-0.418l3.446-3.346 c0.117-0.114,0.304-0.111,0.418,0.006s0.111,0.304-0.006,0.418l-3.446,3.346C31.083,336.627,31.009,336.655,30.934,336.655z" style="fill: rgb(252, 252, 240);"/></g><g id="__id620_svf7zmxsic"><path d="M39.612,139.717c-11.595,28.059,0.478,79.697-8.321,90.349c-10.425,12.62-11.227,19.108-26.973,71.318 c1.564,0.892,39.905,11.761,41.151,12.775c1.088-0.846,7.087-49.307,17.928-70.56c12.146-23.811,21.494-99.801,22.727-101.799 C83.036,141.285,40.867,139.591,39.612,139.717" style="fill: rgb(16, 177, 81);"/></g><g id="__id621_svf7zmxsic"><path d="M132.14,63.124c-5.886-9.981-31.139-28.23-51.364-22.538c-31.04,8.735-39.816,60.671-42.926,92.909 c-0.355,3.678,53.598,42.673,58.755,25.995c4.508-14.578,20.363-44.033,20.363-44.033l20.124,3.924 C137.092,119.381,141.957,79.768,132.14,63.124" style="fill: rgb(252, 252, 240);"/></g><g id="__id622_svf7zmxsic"><path d="M38.681,142.168l0.648-9.635c0,0,46.579-59.322,46.437-60.052c-0.205-1.055,39.171,12.266,39.496,13.941 c0.426,2.189-17.115,51.32-16.24,59.813c1.054,10.219,20.483,57.7,24.94,82.51c-39.406,0.48-76.157-2.92-77.492-2.92 C58.469,163.981,38.681,142.168,38.681,142.168" style="fill: rgb(53, 54, 61);"/></g><g id="__id623_svf7zmxsic"><path d="M121.012,199.593c-5.003-18.436-12.959-50.379-11.971-55.105c0.805-3.853,17.551-11.34,20.519-0.433 c1.987,7.301,2.072,33.626,3.54,49.658C129.954,195.878,126.807,198.042,121.012,199.593" style="fill: rgb(232, 135, 114);"/></g><g id="__id624_svf7zmxsic"><path d="M112.663,173.334c-0.569,2.986,4.425,18.091,6.904,27.145c-2.669,4.959,0.133,9.989-2.898,13.786 c-1.349,1.691,6.969,13.487,8.972,14.399c2.518,1.145,5.127-5.576,6.817-10.933c1.708-5.415,1.603-13.67,1.913-18.308 c0.306-4.568,1.942-29.328,1.26-30.705C134.737,166.91,113.171,170.66,112.663,173.334" style="fill: rgb(252, 252, 240);"/></g><g id="__id625_svf7zmxsic"><path d="M200.3,314.159c-0.659,0-1.314-0.273-1.782-0.808L26.077,116.246c-0.86-0.984-0.761-2.478,0.223-3.339 s2.478-0.761,3.339,0.223L202.08,310.234c0.86,0.984,0.761,2.478-0.223,3.339C201.408,313.966,200.853,314.159,200.3,314.159z" style="fill: rgb(61, 37, 28);"/></g><g id="__id626_svf7zmxsic"><path d="M74.815,62.478l-31.46,36.655l21.506,47.635l-15.808,3.829c0,0-34.633-44.187-31.639-56.492 C19.33,86.233,56.223,49.26,56.223,49.26L74.815,62.478z" style="fill: rgb(232, 135, 114);"/></g><g id="__id627_svf7zmxsic"><path d="M53.277,121.399c2.183,0.416,9.019,13.726,13.673,21.69c4.349,7.442,14.458,24.135,18.593,33.003 c1.017,2.182-1.691,3.268-3.256,0.916c-2.262-3.4-6.909-9.091-7.557-10.785c-0.365,0.76-0.849,4.09-3.121,4.895 c-2.282,0.809-3.673-0.322-3.77-0.266c-2.02,1.16-3.71-0.649-4.019-0.537c-1.726,0.629-4.344-0.348-5.623-3.291 c-0.94-2.166-3.783-10.156-5.215-11.504c-3.503-3.298-19.652-16.544-19.713-18.572C33.164,133.454,51.447,121.051,53.277,121.399" style="fill: rgb(252, 252, 240);"/></g><g id="__id628_svf7zmxsic"><path d="M67.805,170.497c-0.161,0-0.292-0.128-0.296-0.289l-0.087-4.115c-0.003-0.163,0.127-0.299,0.289-0.302 c0.002,0,0.005,0,0.006,0c0.161,0,0.292,0.128,0.296,0.289l0.087,4.115c0.003,0.163-0.127,0.299-0.289,0.302 C67.809,170.497,67.807,170.497,67.805,170.497z" style="fill: rgb(61, 37, 28);"/></g><g id="__id629_svf7zmxsic"><path d="M63.87,169.928c-0.139,0-0.263-0.099-0.29-0.24l-0.689-3.622c-0.031-0.161,0.075-0.315,0.235-0.346 c0.161-0.028,0.315,0.075,0.346,0.235l0.689,3.622c0.031,0.161-0.075,0.315-0.235,0.346 C63.907,169.927,63.889,169.928,63.87,169.928z" style="fill: rgb(61, 37, 28);"/></g><g id="__id630_svf7zmxsic"><path d="M57.778,91.927c0,0-18.36-17.609-25.427-26.731c13.615-11.89,24.137-20.318,44.341-25.686 c11.985-3.185,25.821,0.647,32.265,5.029C91.54,59.742,57.778,91.927,57.778,91.927" style="fill: rgb(252, 252, 240);"/></g><g id="__id631_svf7zmxsic"><path d="M153.908,26.449c1.659-5.138,0.961-15.307-8.904-21.498c-8.282-5.197-15.763-6.938-23.947-2.111 c-15.64,9.224-14.653,28.622-5.941,35.321C126.048,46.568,148.346,43.672,153.908,26.449" style="fill: rgb(61, 37, 28);"/></g><g id="__id632_svf7zmxsic"><path d="M127.039,42.915C126.351,44.416,118.39,57,115.613,65.26c-0.978-0.519-9.657-13.552-13.622-20.273 c6.2-5.745,9.755-9.27,12.566-17.877C114.747,28.505,122.065,38.637,127.039,42.915" style="fill: rgb(232, 135, 114);"/></g><g id="__id633_svf7zmxsic"><path d="M145.084,39.621c2.328-5.055,6.754-9.782,5.534-16.629c-2.262-12.683-17.946-18.626-26.503-12.106 c-5.333,4.063-10.541,13.657-9.965,21.729c0.523,7.329,8.295,19.5,15.188,20.099C134.229,53.14,140.883,48.741,145.084,39.621" style="fill: rgb(232, 135, 114);"/></g><g id="__id634_svf7zmxsic"><path d="M133.572,27.132c0.675,0.494,0.312,1.638-0.055,2.274c-0.268,0.465-0.949,1.389-1.829,0.975 c-0.672-0.317-0.682-1.252,0.051-2.411C132.484,26.792,133.306,26.937,133.572,27.132" style="fill: rgb(61, 37, 28);"/></g><g id="__id635_svf7zmxsic"><path d="M132.131,30.782c-0.191,0-0.382-0.044-0.569-0.132c-0.307-0.144-0.52-0.394-0.615-0.721 c-0.162-0.556,0.031-1.308,0.542-2.116c0.609-0.964,1.276-1.108,1.62-1.108c0.241,0,0.474,0.069,0.638,0.189 c0.866,0.634,0.424,1.97,0.027,2.661C133.56,29.923,132.975,30.782,132.131,30.782z M133.109,27.296 c-0.222,0-0.662,0.108-1.12,0.832c-0.414,0.653-0.586,1.25-0.474,1.635c0.048,0.164,0.146,0.279,0.299,0.351 c0.109,0.051,0.212,0.076,0.317,0.076c0.551,0,1.004-0.713,1.13-0.932c0.324-0.562,0.627-1.529,0.137-1.888 C133.35,27.337,133.247,27.296,133.109,27.296z" style="fill: rgb(61, 37, 28);"/></g><g id="__id636_svf7zmxsic"><path d="M135.184,29.489c-1.67-0.154-4.393-1.866-5.571-3.13c0,0,2.173-1.398,4.352-0.049 C135.887,27.501,135.184,29.489,135.184,29.489" style="fill: rgb(232, 135, 114);"/></g><g id="__id637_svf7zmxsic"><path d="M135.185,29.785c-0.009,0-0.018-0.001-0.028-0.001c-1.698-0.157-4.491-1.861-5.761-3.223 c-0.111-0.12-0.105-0.307,0.014-0.418c0.12-0.111,0.307-0.105,0.418,0.014c1.174,1.259,3.837,2.895,5.383,3.037 c0.162,0.015,0.282,0.159,0.267,0.322C135.464,29.67,135.336,29.785,135.185,29.785z" style="fill: rgb(61, 37, 28);"/></g><g id="__id638_svf7zmxsic"><path d="M130.401,23.149c-0.327,0.023-0.376,0.459-0.07,0.591c3.847,1.656,6.151,4.094,6.637,4.251 c0.393,0.128,0.934-1.295,0.555-1.707C135.039,23.589,132.225,23.023,130.401,23.149" style="fill: rgb(61, 37, 28);"/></g><g id="__id639_svf7zmxsic"><path d="M143.711,32.847c-0.773-0.321-1.563,0.582-1.917,1.225c-0.26,0.47-0.698,1.532,0.113,2.07 c0.618,0.411,1.423-0.064,2.036-1.292C144.565,33.602,144.016,32.974,143.711,32.847" style="fill: rgb(61, 37, 28);"/></g><g id="__id640_svf7zmxsic"><path d="M142.372,36.582L142.372,36.582c-0.223,0-0.434-0.066-0.629-0.195c-0.718-0.477-0.796-1.396-0.207-2.459 c0.366-0.666,1.069-1.444,1.843-1.444c0.153,0,0.303,0.03,0.446,0.09c0.261,0.109,0.486,0.363,0.603,0.679 c0.125,0.337,0.189,0.91-0.22,1.729C143.7,35.998,143.031,36.582,142.372,36.582z M143.379,33.075c-0.48,0-1.023,0.59-1.325,1.139 c-0.204,0.367-0.608,1.266,0.017,1.68c0.474,0.317,1.115-0.192,1.608-1.177c0.313-0.629,0.278-1.032,0.194-1.259 c-0.077-0.209-0.214-0.313-0.276-0.339C143.526,33.09,143.454,33.075,143.379,33.075z" style="fill: rgb(61, 37, 28);"/></g><g id="__id641_svf7zmxsic"><path d="M140.861,32.688c0.996,1.349,3.871,2.792,5.562,3.145c0,0,0.07-2.583-2.212-3.748 C142.197,31.057,140.861,32.688,140.861,32.688" style="fill: rgb(232, 135, 114);"/></g><g id="__id642_svf7zmxsic"><path d="M146.423,36.129c-0.02,0-0.041-0.002-0.061-0.006c-1.823-0.382-4.727-1.888-5.739-3.259 c-0.097-0.131-0.069-0.317,0.062-0.414c0.131-0.096,0.316-0.069,0.414,0.062c0.921,1.248,3.699,2.679,5.385,3.032 c0.16,0.034,0.262,0.19,0.229,0.35C146.683,36.033,146.56,36.129,146.423,36.129z" style="fill: rgb(61, 37, 28);"/></g><g id="__id643_svf7zmxsic"><path d="M148.761,33.497c0.15,0.291-0.198,0.56-0.469,0.366c-3.409-2.434-6.688-3.143-7.074-3.476 c-0.313-0.271,0.625-1.47,1.172-1.359C145.983,29.757,147.924,31.871,148.761,33.497" style="fill: rgb(61, 37, 28);"/></g><g id="__id644_svf7zmxsic"><path d="M136.883,40.62c-0.891,0-1.672-0.116-1.85-0.144c-0.161-0.026-0.271-0.177-0.246-0.339 c0.026-0.161,0.181-0.272,0.339-0.246c1.384,0.22,3.738,0.256,4.174-0.581c0.343-0.659,0.127-2.449-0.103-4.345 c-0.124-1.024-0.251-2.082-0.32-3.136c-0.01-0.163,0.113-0.303,0.276-0.314c0.146-0.013,0.303,0.113,0.314,0.276 c0.068,1.037,0.195,2.087,0.317,3.103c0.261,2.161,0.467,3.868,0.04,4.688C139.386,40.424,138.042,40.62,136.883,40.62z" style="fill: rgb(61, 37, 28);"/></g><g id="__id645_svf7zmxsic"><path d="M135.536,45.118c-0.016,0-0.032-0.001-0.049-0.004c-3.17-0.519-5.973-2.653-7.315-5.571 c-0.068-0.148-0.003-0.324,0.145-0.392c0.146-0.068,0.324-0.005,0.392,0.145c1.261,2.741,3.895,4.747,6.874,5.234 c0.161,0.026,0.27,0.179,0.244,0.34C135.804,45.015,135.678,45.118,135.536,45.118z" style="fill: rgb(61, 37, 28);"/></g><g id="__id646_svf7zmxsic"><path d="M122.822,207.62c-3.5,3.111-0.949,9.06,2.836,12.552c-0.638,4.98,0.107,10.477,2.183,10.415 c3.045-0.091,4.489-12.964,1.874-24.407C129.292,204.331,124.961,205.719,122.822,207.62" style="fill: rgb(252, 252, 240);"/></g><g id="__id647_svf7zmxsic"><path d="M125.286,226.851c-0.148,0-0.276-0.111-0.293-0.262c-0.046-0.397-0.078-0.829-0.112-1.292 c-0.165-2.202-0.369-4.943-2.232-7.978c-1.338-2.18-0.869-6.674,0.04-8.81c0.064-0.15,0.236-0.221,0.388-0.156 c0.15,0.064,0.22,0.238,0.156,0.388c-0.957,2.245-1.206,6.435-0.081,8.268c1.938,3.158,2.158,6.097,2.318,8.243 c0.034,0.454,0.065,0.879,0.11,1.269c0.018,0.162-0.098,0.308-0.261,0.328C125.309,226.851,125.297,226.851,125.286,226.851z" style="fill: rgb(61, 37, 28);"/></g><g id="__id648_svf7zmxsic"><path d="M197.6,315.482l-11.352-12.975c-1.598-1.826-1.412-4.602,0.414-6.2l0.732-0.641 c1.827-1.597,4.602-1.412,6.2,0.414l11.352,12.975c1.598,1.826,1.412,4.602-0.414,6.2l-0.733,0.641 C201.973,317.494,199.197,317.309,197.6,315.482" style="fill: rgb(16, 177, 81);"/></g><g id="__id649_svf7zmxsic"><path d="M202.665,349.994c0,0-4.301-7.696-14.105-32.286c-6.438-16.148,15.971-21.859,27.773-10.056 c14.812,14.811,44.095,42.342,44.095,42.342H202.665z" style="fill: rgb(252, 252, 240);"/></g><g id="__id650_svf7zmxsic"><path d="M84.669,74.108c4.136-11.075,4.859-24.386,1.663-35.772c0.026-0.092,4.687,0.222,4.727,0.272 c3.253,11.589,2.901,24.553-1.583,36.561C89.147,74.993,85.273,74.404,84.669,74.108" style="fill: rgb(53, 54, 61);"/></g><g id="__id651_svf7zmxsic"><path d="M119.334,88.112c5.085-10.673,6.632-22.494,4.44-34.115c0.02-0.054,1.683,1.33,3,2.583 c0.86,0.818,1.572,1.682,1.586,1.702c2.231,11.828,0.522,18.308-3.871,31.563C124.178,89.642,119.911,88.459,119.334,88.112" style="fill: rgb(53, 54, 61);"/></g><g id="__id652_svf7zmxsic"><path d="M58.01,90.42c-0.058,0-0.116-0.017-0.167-0.051c-0.135-0.092-0.169-0.276-0.077-0.411 c4.855-7.107,10.652-13.526,17.23-19.078c0.125-0.104,0.311-0.09,0.417,0.035s0.09,0.311-0.035,0.417 c-6.537,5.517-12.298,11.897-17.122,18.96C58.197,90.375,58.104,90.42,58.01,90.42z" style="fill: rgb(16, 177, 81);"/></g><g id="__id653_svf7zmxsic"><path d="M125.293,229.784c-0.521,1.122-2.01,1.669-3.175,1.167c-1.166-0.502-1.63-2.199-1.394-3.134 c-0.721,0.275-1.719,0.377-2.573-0.209c-0.855-0.586-1.511-1.659-1.358-2.487c-0.521,0.167-1.325,0.137-1.927-0.295 c-0.602-0.432-1.086-1.348-1.102-1.879c-0.507,0.02-1.51-0.361-1.904-0.994c-1.106-1.78-1.512-7.822,0.23-7.972 c1.151-0.099,2.358,1.595,3.086,4.484c0.522-1.177,1.981-3.809,3.343-3.497c1.678,0.386,1.236,2.747,1.312,2.986 c0.16-0.211,0.799-1.276,1.862-1.276c1.912,0,2.138,2.593,2.138,3.416c0.283-0.589,1.37-1.55,2.509-0.899 C128.379,220.363,127.246,225.583,125.293,229.784" style="fill: rgb(252, 252, 240);"/></g><g id="__id654_svf7zmxsic"><path d="M126.028,227.784c-0.015,0-0.03-0.001-0.044-0.003c-0.162-0.024-0.273-0.175-0.248-0.336 c0.285-1.891,0.532-3.781,0.77-5.608c0.066-0.505,0.142-1.078,0.006-1.581c-0.109-0.401-0.434-0.861-0.892-0.919 c-0.431-0.06-0.894,0.231-1.416,0.873c-1.628,2.007-2.642,4.53-2.857,7.105c-0.013,0.163-0.161,0.282-0.319,0.27 c-0.162-0.013-0.284-0.157-0.27-0.319c0.224-2.692,1.285-5.33,2.987-7.429c0.661-0.815,1.307-1.166,1.949-1.087 c0.732,0.093,1.225,0.746,1.389,1.352c0.166,0.618,0.083,1.252,0.01,1.812c-0.239,1.83-0.486,3.723-0.772,5.619 C126.298,227.678,126.172,227.784,126.028,227.784z" style="fill: rgb(61, 37, 28);"/></g><g id="__id655_svf7zmxsic"><path d="M117.161,225.041c-0.001,0-0.003,0-0.004,0c-0.163-0.002-0.294-0.136-0.292-0.3 c0.038-2.672,1.123-5.309,2.977-7.234c0.819-0.849,1.616-1.219,2.376-1.103c0.879,0.135,1.445,0.882,1.682,1.537 c0.243,0.677,0.246,1.379,0.226,2.161c-0.004,0.163-0.129,0.307-0.303,0.288c-0.163-0.004-0.292-0.14-0.288-0.303 c0.018-0.721,0.017-1.365-0.191-1.945c-0.225-0.622-0.701-1.074-1.215-1.153c-0.564-0.09-1.184,0.227-1.86,0.929 c-1.752,1.818-2.777,4.308-2.812,6.832C117.454,224.911,117.323,225.041,117.161,225.041z" style="fill: rgb(61, 37, 28);"/></g><g id="__id656_svf7zmxsic"><path d="M114.137,222.854c-0.016,0-0.031-0.001-0.047-0.003c-0.161-0.025-0.272-0.177-0.246-0.339 c0.687-4.357,1.801-5.889,2.901-6.895c1.292-1.182,2.114-1.057,2.572-0.745c0.925,0.627,0.957,2.424,0.574,3.436 c-0.058,0.153-0.23,0.229-0.381,0.172c-0.153-0.058-0.23-0.229-0.172-0.381c0.339-0.895,0.243-2.333-0.353-2.738 c-0.543-0.367-1.386,0.277-1.842,0.693c-1.021,0.933-2.056,2.372-2.715,6.55C114.406,222.75,114.28,222.854,114.137,222.854z" style="fill: rgb(61, 37, 28);"/></g><g id="__id657_svf7zmxsic"><path d="M240.005,349.357c-0.079,0-0.157-0.031-0.215-0.093l-20.852-22.183c-0.112-0.119-0.106-0.306,0.013-0.418 s0.306-0.106,0.418,0.013l20.852,22.183c0.112,0.119,0.106,0.306-0.013,0.418C240.151,349.331,240.078,349.357,240.005,349.357z" style="fill: rgb(53, 54, 61);"/></g><g id="__id658_svf7zmxsic"><path d="M221.372,349.357c-0.092,0-0.184-0.043-0.241-0.125l-22.183-31.352c-0.094-0.133-0.063-0.318,0.07-0.412 c0.132-0.093,0.318-0.064,0.412,0.07l22.183,31.352c0.094,0.133,0.063,0.318-0.07,0.412 C221.491,349.34,221.431,349.357,221.372,349.357z" style="fill: rgb(53, 54, 61);"/></g><g id="__id659_svf7zmxsic"><path d="M146.743,11.344c-1.049,3.5-4.285,5.931-7.665,7.32c-3.381,1.388-7.037,1.981-10.462,3.257 c-3.424,1.277-2.92,8.339-5.827,6.701c-2.027-1.142,0.271-4.273-0.602-7.245c-0.655-2.232-3.995-3.807-6.316-3.66 c2.404-6.037,7.992-10.698,14.363-11.977C136.605,4.461,143.56,6.602,146.743,11.344" style="fill: rgb(61, 37, 28);"/></g><g id="__id660_svf7zmxsic"><path d="M122.268,24.354c0.523-2.763-0.877-7.998-5.029-7.773c-1.431,0.078-2.735,0.997-3.49,2.215 c-1.137,1.835-2.197,10.454,3.128,11.604C118.742,30.803,121.656,27.583,122.268,24.354" style="fill: rgb(232, 135, 114);"/></g><g id="__id661_svf7zmxsic"><path d="M119.9,26.227c-0.042,0-0.084-0.009-0.124-0.027c-0.148-0.069-0.213-0.245-0.144-0.393 c0.975-2.102,0.024-5.298-1.884-6.333c-0.144-0.078-0.197-0.258-0.119-0.401c0.078-0.144,0.259-0.196,0.401-0.119 c2.191,1.188,3.25,4.705,2.139,7.101C120.119,26.164,120.012,26.227,119.9,26.227z" style="fill: rgb(61, 37, 28);"/></g><g id="__id662_svf7zmxsic"><path d="M142.834,12.291c0.426,1.928-0.161,3.98-1.241,5.633c-1.079,1.654-2.613,2.958-4.211,4.118 c-0.524,0.38-1.126,0.942-0.917,1.553c0.161,0.469,0.717,0.654,1.203,0.752c3.963,0.802,8.218,0.058,11.675-2.039 c1.069-0.649,2.113-1.487,2.539-2.663c0.525-1.448-0.039-3.13-1.1-4.247c-1.06-1.116-2.538-1.746-4.027-2.139 C145.267,12.865,143.73,12.677,142.834,12.291" style="fill: rgb(61, 37, 28);"/></g></svg>